<svg xmlns="http://www.w3.org/2000/svg" xmlns:xlink="http://www.w3.org/1999/xlink" width="44.101" height="44.125" viewBox="0 0 44.101 44.125">
  <defs>
    <filter id="Icon_awesome-gavel" x="0" y="0" width="44.101" height="44.125" filterUnits="userSpaceOnUse">
      <feOffset dy="3" input="SourceAlpha"/>
      <feGaussianBlur stdDeviation="3" result="blur"/>
      <feFlood flood-opacity="0.161"/>
      <feComposite operator="in" in2="blur"/>
      <feComposite in="SourceGraphic"/>
    </filter>
  </defs>
  <g transform="matrix(1, 0, 0, 1, 0, 0)" filter="url(#Icon_awesome-gavel)">
    <path id="Icon_awesome-gavel-2" data-name="Icon awesome-gavel" d="M24.657,9.734l-1.1-1.1a1.172,1.172,0,0,0-1.657,0l-.276.276L16.094,3.382l.276-.276a1.172,1.172,0,0,0,0-1.657l-1.1-1.1a1.172,1.172,0,0,0-1.657,0L7.532,6.42a1.172,1.172,0,0,0,0,1.657l1.1,1.1a1.172,1.172,0,0,0,1.657,0l.276-.276L12.5,10.839,8.546,14.8,8.27,14.52a1.562,1.562,0,0,0-2.21,0l-5.6,5.6a1.562,1.562,0,0,0,0,2.21l2.21,2.21a1.562,1.562,0,0,0,2.21,0l5.6-5.6a1.562,1.562,0,0,0,0-2.21l-.276-.276L14.161,12.5l1.933,1.933-.276.276a1.172,1.172,0,0,0,0,1.657l1.1,1.1a1.172,1.172,0,0,0,1.657,0l6.077-6.077a1.172,1.172,0,0,0,0-1.657Z" transform="translate(9.5 6.5)" fill="#d5eafc" stroke="#72bbfb" stroke-width="1"/>
  </g>
</svg>
